<svg width="28" height="34" viewBox="0 0 28 34" fill="none" xmlns="http://www.w3.org/2000/svg">
<path d="M6.3376 7.99724C6.3376 12.1454 9.69579 15.5038 13.8442 15.5038C17.9926 15.5038 21.3507 12.1454 21.3507 7.99724C21.3507 3.84908 17.9925 0.490674 13.8442 0.490674C9.69601 0.490674 6.3376 3.84887 6.3376 7.99724ZM8.27582 8.03569C8.27582 4.95433 10.7628 2.46735 13.8442 2.46735C16.9255 2.46735 19.4125 4.95433 19.4125 8.03569C19.4125 11.117 16.9255 13.604 13.8442 13.604C10.7628 13.604 8.27582 11.117 8.27582 8.03569Z" fill="#CACEDA" stroke="#CACEDA" stroke-width="0.4"/>
<path d="M26.6881 31.7705H26.888L26.8881 31.5705L26.8883 29.6477C26.8883 22.7691 21.2611 17.1419 14.3825 17.1419H13.3058C6.42722 17.1419 0.8 22.7691 0.8 29.6477V31.5705V31.7705H1H2.53809H2.73809V31.5705V29.6477C2.73809 23.8359 7.49408 19.0801 13.3057 19.0801H14.3824C20.1942 19.0801 24.95 23.8361 24.95 29.6477V31.5705V31.7705H25.15H26.6881Z" fill="#CACEDA" stroke="#CACEDA" stroke-width="0.4"/>
<line x1="1" y1="32.4592" x2="26.7515" y2="32.4592" stroke="#CACEDA" stroke-width="1.7"/>
</svg>
